<mxfile host="app.diagrams.net" modified="2021-03-19T03:22:06.467Z" agent="5.0 (Windows NT 10.0; Win64; x64) AppleWebKit/537.36 (KHTML, like Gecko) Chrome/88.0.4302.0 Safari/537.36" etag="BEUSptA_V4bbMfZL6kJ0" version="14.2.7" type="github">
  <diagram id="14Ang-8kndO1QuwxaeU5" name="第 1 页">
    <mxGraphModel dx="782" dy="446" grid="1" gridSize="10" guides="1" tooltips="1" connect="1" arrows="1" fold="1" page="1" pageScale="1" pageWidth="827" pageHeight="1169" math="0" shadow="0">
      <root>
        <mxCell id="0" />
        <mxCell id="1" parent="0" />
        <mxCell id="SjV6g8d4gcgA0EoLBcRi-15" value="" style="endArrow=none;dashed=1;html=1;" edge="1" parent="1">
          <mxGeometry width="50" height="50" relative="1" as="geometry">
            <mxPoint x="120" y="340" as="sourcePoint" />
            <mxPoint x="120" y="40" as="targetPoint" />
          </mxGeometry>
        </mxCell>
        <mxCell id="SjV6g8d4gcgA0EoLBcRi-16" value="" style="endArrow=none;dashed=1;html=1;" edge="1" parent="1">
          <mxGeometry width="50" height="50" relative="1" as="geometry">
            <mxPoint x="320" y="340" as="sourcePoint" />
            <mxPoint x="320" y="40" as="targetPoint" />
          </mxGeometry>
        </mxCell>
        <mxCell id="SjV6g8d4gcgA0EoLBcRi-18" value="" style="endArrow=classic;html=1;" edge="1" parent="1">
          <mxGeometry relative="1" as="geometry">
            <mxPoint x="120" y="50" as="sourcePoint" />
            <mxPoint x="320" y="50" as="targetPoint" />
          </mxGeometry>
        </mxCell>
        <mxCell id="SjV6g8d4gcgA0EoLBcRi-19" value="&lt;font style=&quot;font-size: 20px&quot;&gt;IP,port&lt;/font&gt;" style="edgeLabel;resizable=0;html=1;align=center;verticalAlign=middle;" connectable="0" vertex="1" parent="SjV6g8d4gcgA0EoLBcRi-18">
          <mxGeometry relative="1" as="geometry" />
        </mxCell>
        <mxCell id="SjV6g8d4gcgA0EoLBcRi-21" value="" style="endArrow=classic;html=1;" edge="1" parent="1">
          <mxGeometry relative="1" as="geometry">
            <mxPoint x="320" y="80" as="sourcePoint" />
            <mxPoint x="120" y="80" as="targetPoint" />
          </mxGeometry>
        </mxCell>
        <mxCell id="SjV6g8d4gcgA0EoLBcRi-22" value="&lt;span style=&quot;font-size: 20px&quot;&gt;ack,sign(PUa)&lt;/span&gt;" style="edgeLabel;resizable=0;html=1;align=center;verticalAlign=middle;" connectable="0" vertex="1" parent="SjV6g8d4gcgA0EoLBcRi-21">
          <mxGeometry relative="1" as="geometry" />
        </mxCell>
        <mxCell id="SjV6g8d4gcgA0EoLBcRi-25" value="" style="endArrow=classic;html=1;" edge="1" parent="1">
          <mxGeometry width="50" height="50" relative="1" as="geometry">
            <mxPoint x="120" y="120" as="sourcePoint" />
            <mxPoint x="320" y="120" as="targetPoint" />
          </mxGeometry>
        </mxCell>
        <mxCell id="SjV6g8d4gcgA0EoLBcRi-26" value="PUa(user,SHA1(secret)" style="text;html=1;align=center;verticalAlign=middle;resizable=0;points=[];autosize=1;" vertex="1" parent="1">
          <mxGeometry x="150" y="100" width="140" height="20" as="geometry" />
        </mxCell>
        <mxCell id="SjV6g8d4gcgA0EoLBcRi-27" value="" style="endArrow=classic;html=1;" edge="1" parent="1">
          <mxGeometry width="50" height="50" relative="1" as="geometry">
            <mxPoint x="320" y="200" as="sourcePoint" />
            <mxPoint x="120" y="200" as="targetPoint" />
          </mxGeometry>
        </mxCell>
        <mxCell id="SjV6g8d4gcgA0EoLBcRi-28" value="PRa(server,G,p)" style="text;html=1;align=center;verticalAlign=middle;resizable=0;points=[];autosize=1;" vertex="1" parent="1">
          <mxGeometry x="170" y="170" width="100" height="20" as="geometry" />
        </mxCell>
        <mxCell id="SjV6g8d4gcgA0EoLBcRi-29" value="" style="endArrow=classic;html=1;" edge="1" parent="1">
          <mxGeometry width="50" height="50" relative="1" as="geometry">
            <mxPoint x="120" y="230" as="sourcePoint" />
            <mxPoint x="320" y="230" as="targetPoint" />
          </mxGeometry>
        </mxCell>
        <mxCell id="SjV6g8d4gcgA0EoLBcRi-30" value="PUa(Kb)" style="text;html=1;align=center;verticalAlign=middle;resizable=0;points=[];autosize=1;" vertex="1" parent="1">
          <mxGeometry x="190" y="210" width="60" height="20" as="geometry" />
        </mxCell>
        <mxCell id="SjV6g8d4gcgA0EoLBcRi-31" value="" style="endArrow=classic;html=1;" edge="1" parent="1">
          <mxGeometry width="50" height="50" relative="1" as="geometry">
            <mxPoint x="320" y="270" as="sourcePoint" />
            <mxPoint x="120" y="270" as="targetPoint" />
          </mxGeometry>
        </mxCell>
        <mxCell id="SjV6g8d4gcgA0EoLBcRi-32" value="PRa(Ka,Eab(message))" style="text;html=1;align=center;verticalAlign=middle;resizable=0;points=[];autosize=1;" vertex="1" parent="1">
          <mxGeometry x="150" y="250" width="140" height="20" as="geometry" />
        </mxCell>
        <mxCell id="SjV6g8d4gcgA0EoLBcRi-33" value="" style="endArrow=classic;html=1;" edge="1" parent="1">
          <mxGeometry width="50" height="50" relative="1" as="geometry">
            <mxPoint x="120" y="300" as="sourcePoint" />
            <mxPoint x="320" y="300" as="targetPoint" />
          </mxGeometry>
        </mxCell>
        <mxCell id="SjV6g8d4gcgA0EoLBcRi-34" value="messsage,Eab(news)" style="text;html=1;align=center;verticalAlign=middle;resizable=0;points=[];autosize=1;" vertex="1" parent="1">
          <mxGeometry x="155" y="280" width="130" height="20" as="geometry" />
        </mxCell>
        <mxCell id="SjV6g8d4gcgA0EoLBcRi-35" value="" style="endArrow=none;dashed=1;html=1;dashPattern=1 3;strokeWidth=2;" edge="1" parent="1">
          <mxGeometry width="50" height="50" relative="1" as="geometry">
            <mxPoint x="45" y="100" as="sourcePoint" />
            <mxPoint x="395" y="100" as="targetPoint" />
          </mxGeometry>
        </mxCell>
        <mxCell id="SjV6g8d4gcgA0EoLBcRi-37" value="" style="endArrow=none;dashed=1;html=1;dashPattern=1 3;strokeWidth=2;" edge="1" parent="1">
          <mxGeometry width="50" height="50" relative="1" as="geometry">
            <mxPoint x="40" y="150" as="sourcePoint" />
            <mxPoint x="400" y="150" as="targetPoint" />
          </mxGeometry>
        </mxCell>
        <mxCell id="SjV6g8d4gcgA0EoLBcRi-38" value="" style="endArrow=none;dashed=1;html=1;dashPattern=1 3;strokeWidth=2;" edge="1" parent="1">
          <mxGeometry width="50" height="50" relative="1" as="geometry">
            <mxPoint x="50" y="320" as="sourcePoint" />
            <mxPoint x="400" y="320" as="targetPoint" />
          </mxGeometry>
        </mxCell>
        <mxCell id="SjV6g8d4gcgA0EoLBcRi-39" value="&lt;font style=&quot;font-size: 22px&quot;&gt;client:B&lt;/font&gt;" style="rounded=0;whiteSpace=wrap;html=1;" vertex="1" parent="1">
          <mxGeometry x="70" y="350" width="100" height="30" as="geometry" />
        </mxCell>
        <mxCell id="SjV6g8d4gcgA0EoLBcRi-41" value="&lt;span style=&quot;font-size: 22px&quot;&gt;server:A&lt;/span&gt;" style="rounded=0;whiteSpace=wrap;html=1;" vertex="1" parent="1">
          <mxGeometry x="270" y="350" width="100" height="30" as="geometry" />
        </mxCell>
      </root>
    </mxGraphModel>
  </diagram>
</mxfile>
